<?xml version="1.0" encoding="UTF-8"?>
<svg version="1.1" xmlns="http://www.w3.org/2000/svg" width="500" height="500" viewBox="0 0 500 500">
<path d="M0 0 C3.01153663 0.80609552 5.95582945 1.75412562 8.91796875 2.7265625 C15.01164109 4.68463141 21.23384296 6.19256075 27.43041992 7.78540039 C36.1708947 10.03278885 36.1708947 10.03278885 39.9375 11.09765625 C51.80776981 14.42942516 63.89971514 16.67329834 76 19 C76.625 20.8125 76.625 20.8125 77 23 C76.34 23.99 75.68 24.98 75 26 C78.3 26.33 81.6 26.66 85 27 C84.54660903 32.27582222 81.68898615 35.79117265 78.75 40 C68.52994321 54.99477337 59.04432731 70.40566836 50.42089844 86.37304688 C48.80340426 89.36346567 47.17049501 92.3452886 45.5390625 95.328125 C18.98055904 144.13093697 -3.04429311 195.4168099 -18 249 C-18.21398437 249.76022461 -18.42796875 250.52044922 -18.6484375 251.30371094 C-19.31808554 253.69967225 -19.97523085 256.09857366 -20.625 258.5 C-20.83801758 259.2852002 -21.05103516 260.07040039 -21.27050781 260.87939453 C-22.31293081 264.86440529 -23.16677129 268.79350282 -23.734375 272.875 C-23.84571777 273.65294922 -23.95706055 274.43089844 -24.07177734 275.23242188 C-24.2685588 276.70400495 -24.43728158 278.17971507 -24.57275391 279.65820312 C-24.8359375 281.65625 -24.8359375 281.65625 -26 285 C-30.62469632 287.75624937 -35.56543573 288.71892224 -40.8125 289.8125 C-48.11434838 291.40883905 -55.09652045 293.57851453 -62.1105957 296.1574707 C-68.3910378 298.39252117 -68.3910378 298.39252117 -72 297 C-73.19151036 295.62035642 -74.38459572 294.23688355 -75.4609375 292.765625 C-77.08910379 290.78681551 -77.08910379 290.78681551 -79.84375 288.765625 C-83.42577055 285.83378449 -85.69659324 282.40491829 -88.125 278.5 C-88.59309082 277.75935303 -89.06118164 277.01870605 -89.54345703 276.25561523 C-141 194.00194729 -141 194.00194729 -141 167 C-141.90492188 167.77537109 -141.90492188 167.77537109 -142.828125 168.56640625 C-143.62734375 169.22511719 -144.4265625 169.88382813 -145.25 170.5625 C-146.03890625 171.22378906 -146.8278125 171.88507813 -147.640625 172.56640625 C-150 174 -150 174 -152.234375 173.77734375 C-154 173 -154 173 -155 172 C-155.14115161 169.32941149 -155.04247107 166.67567762 -155 164 C-156.485 164.99 -156.485 164.99 -158 166 C-160.1875 165.625 -160.1875 165.625 -162 165 C-163.37894938 160.61505637 -164.26305726 156.48795433 -164.78417969 151.90258789 C-166.11245777 140.43628564 -168.62294873 129.28478931 -171.25 118.0625 C-171.5437854 116.80563385 -171.5437854 116.80563385 -171.84350586 115.52337646 C-173.74036871 107.42790619 -175.67235021 99.34103066 -177.62948608 91.25993347 C-178.13255524 89.17845764 -178.63182704 87.09610826 -179.12988281 85.01342773 C-179.73297462 82.49891382 -180.34500581 79.98651986 -180.96777344 77.47680664 C-184.33253058 63.45397019 -184.33253058 63.45397019 -183 59 C-180.9155266 56.69654133 -178.46121 55.52419119 -175.6875 54.1875 C-174.11795368 53.34848138 -172.55031163 52.50589283 -170.984375 51.66015625 C-170.16388672 51.22848145 -169.34339844 50.79680664 -168.49804688 50.35205078 C-164.36879159 48.11711961 -160.40323721 45.63590188 -156.4375 43.125 C-155.64633789 42.62540771 -154.85517578 42.12581543 -154.04003906 41.61108398 C-146.04024208 36.49281977 -138.47052531 30.85647097 -131 25 C-130.45891602 24.57605957 -129.91783203 24.15211914 -129.36035156 23.71533203 C-124.52366848 20.03838847 -124.52366848 20.03838847 -120 16 C-118.33382885 15.95936168 -116.66611905 15.957279 -115 16 C-114.01 18.64 -113.02 21.28 -112 24 C-110.35 24 -108.7 24 -107 24 C-105.43430593 29.11728996 -104.37889458 34.1464593 -103.5546875 39.4296875 C-103.28430044 41.1077931 -103.01361636 42.78585087 -102.74267578 44.46386719 C-102.53146088 45.78420959 -102.53146088 45.78420959 -102.315979 47.13122559 C-95.64118334 88.66185039 -88.6484501 131.10130999 -75 171 C-74.26196393 173.37225879 -73.53209716 175.74708306 -72.8125 178.125 C-71.47352471 182.51728715 -70.05071814 186.8676563 -68.515625 191.1953125 C-68 193 -68 193 -68 196 C-67.34 196 -66.68 196 -66 196 C-65.90203125 194.94039062 -65.8040625 193.88078125 -65.703125 192.7890625 C-61.76711071 161.74883947 -48.09811509 128.22694569 -35 100 C-37.64 100 -40.28 100 -43 100 C-43.04254356 98.00045254 -43.04080783 95.99958364 -43 94 C-42.67 93.67 -42.34 93.34 -42 93 C-43.299375 92.855625 -44.59875 92.71125 -45.9375 92.5625 C-49.875 92.125 -49.875 92.125 -51 91 C-50.67015559 85.00910501 -48.62460327 80.95929573 -45.6875 75.8125 C-37.54055313 60.92268928 -31.26492423 45.14109403 -24.93359375 29.4140625 C-24.44044678 28.19138672 -23.9472998 26.96871094 -23.43920898 25.70898438 C-22.50289179 23.37732424 -21.57363049 21.04281408 -20.65258789 18.70507812 C-12.38208341 -1.99251917 -12.38208341 -1.99251917 0 0 Z " fill="#7DD756" transform="translate(299,101)"/>
<path d="M0 0 C3.01153663 0.80609552 5.95582945 1.75412562 8.91796875 2.7265625 C15.01164109 4.68463141 21.23384296 6.19256075 27.43041992 7.78540039 C36.1708947 10.03278885 36.1708947 10.03278885 39.9375 11.09765625 C51.80776981 14.42942516 63.89971514 16.67329834 76 19 C76.625 20.8125 76.625 20.8125 77 23 C76.34 23.99 75.68 24.98 75 26 C78.3 26.33 81.6 26.66 85 27 C84.54660903 32.27582222 81.68898615 35.79117265 78.75 40 C68.52994321 54.99477337 59.04432731 70.40566836 50.42089844 86.37304688 C48.80340426 89.36346567 47.17049501 92.3452886 45.5390625 95.328125 C18.98055904 144.13093697 -3.04429311 195.4168099 -18 249 C-18.21398437 249.76022461 -18.42796875 250.52044922 -18.6484375 251.30371094 C-19.31808554 253.69967225 -19.97523085 256.09857366 -20.625 258.5 C-20.83801758 259.2852002 -21.05103516 260.07040039 -21.27050781 260.87939453 C-22.31293081 264.86440529 -23.16677129 268.79350282 -23.734375 272.875 C-23.84571777 273.65294922 -23.95706055 274.43089844 -24.07177734 275.23242188 C-24.2685588 276.70400495 -24.43728158 278.17971507 -24.57275391 279.65820312 C-24.8359375 281.65625 -24.8359375 281.65625 -26 285 C-30.62469632 287.75624937 -35.56543573 288.71892224 -40.8125 289.8125 C-48.11434838 291.40883905 -55.09652045 293.57851453 -62.1105957 296.1574707 C-68.3910378 298.39252117 -68.3910378 298.39252117 -72 297 C-73.19151036 295.62035642 -74.38459572 294.23688355 -75.4609375 292.765625 C-77.08910379 290.78681551 -77.08910379 290.78681551 -79.84375 288.765625 C-83.42577055 285.83378449 -85.69659324 282.40491829 -88.125 278.5 C-88.59309082 277.75935303 -89.06118164 277.01870605 -89.54345703 276.25561523 C-141 194.00194729 -141 194.00194729 -141 167 C-141.90492188 167.77537109 -141.90492188 167.77537109 -142.828125 168.56640625 C-143.62734375 169.22511719 -144.4265625 169.88382813 -145.25 170.5625 C-146.03890625 171.22378906 -146.8278125 171.88507813 -147.640625 172.56640625 C-150 174 -150 174 -152.234375 173.77734375 C-154 173 -154 173 -155 172 C-155.14115161 169.32941149 -155.04247107 166.67567762 -155 164 C-156.485 164.99 -156.485 164.99 -158 166 C-160.1875 165.625 -160.1875 165.625 -162 165 C-163.37894938 160.61505637 -164.26305726 156.48795433 -164.78417969 151.90258789 C-166.11245777 140.43628564 -168.62294873 129.28478931 -171.25 118.0625 C-171.5437854 116.80563385 -171.5437854 116.80563385 -171.84350586 115.52337646 C-173.74036871 107.42790619 -175.67235021 99.34103066 -177.62948608 91.25993347 C-178.13255524 89.17845764 -178.63182704 87.09610826 -179.12988281 85.01342773 C-179.73297462 82.49891382 -180.34500581 79.98651986 -180.96777344 77.47680664 C-184.33253058 63.45397019 -184.33253058 63.45397019 -183 59 C-180.9155266 56.69654133 -178.46121 55.52419119 -175.6875 54.1875 C-174.11795368 53.34848138 -172.55031163 52.50589283 -170.984375 51.66015625 C-170.16388672 51.22848145 -169.34339844 50.79680664 -168.49804688 50.35205078 C-164.36879159 48.11711961 -160.40323721 45.63590188 -156.4375 43.125 C-155.64633789 42.62540771 -154.85517578 42.12581543 -154.04003906 41.61108398 C-146.04024208 36.49281977 -138.47052531 30.85647097 -131 25 C-130.45891602 24.57605957 -129.91783203 24.15211914 -129.36035156 23.71533203 C-124.52366848 20.03838847 -124.52366848 20.03838847 -120 16 C-118.33382885 15.95936168 -116.66611905 15.957279 -115 16 C-114.01 18.64 -113.02 21.28 -112 24 C-110.35 24 -108.7 24 -107 24 C-105.43430593 29.11728996 -104.37889458 34.1464593 -103.5546875 39.4296875 C-103.28430044 41.1077931 -103.01361636 42.78585087 -102.74267578 44.46386719 C-102.53146088 45.78420959 -102.53146088 45.78420959 -102.315979 47.13122559 C-95.64118334 88.66185039 -88.6484501 131.10130999 -75 171 C-74.26196393 173.37225879 -73.53209716 175.74708306 -72.8125 178.125 C-71.47352471 182.51728715 -70.05071814 186.8676563 -68.515625 191.1953125 C-68 193 -68 193 -68 196 C-67.34 196 -66.68 196 -66 196 C-65.90203125 194.94039062 -65.8040625 193.88078125 -65.703125 192.7890625 C-61.76711071 161.74883947 -48.09811509 128.22694569 -35 100 C-37.64 100 -40.28 100 -43 100 C-43.04254356 98.00045254 -43.04080783 95.99958364 -43 94 C-42.67 93.67 -42.34 93.34 -42 93 C-43.299375 92.855625 -44.59875 92.71125 -45.9375 92.5625 C-49.875 92.125 -49.875 92.125 -51 91 C-50.67015559 85.00910501 -48.62460327 80.95929573 -45.6875 75.8125 C-37.54055313 60.92268928 -31.26492423 45.14109403 -24.93359375 29.4140625 C-24.44044678 28.19138672 -23.9472998 26.96871094 -23.43920898 25.70898438 C-22.50289179 23.37732424 -21.57363049 21.04281408 -20.65258789 18.70507812 C-12.38208341 -1.99251917 -12.38208341 -1.99251917 0 0 Z M-11 9 C-12.36306705 11.47228561 -12.36306705 11.47228561 -13.4453125 14.234375 C-13.87730957 15.27134521 -14.30930664 16.30831543 -14.75439453 17.37670898 C-15.20669434 18.48989502 -15.65899414 19.60308105 -16.125 20.75 C-16.60437012 21.90508057 -17.08374023 23.06016113 -17.57763672 24.25024414 C-19.06148175 27.82957503 -20.532195 31.41406535 -22 35 C-31.69596892 58.6144899 -31.69596892 58.6144899 -36.875 69.5625 C-37.23223145 70.31781006 -37.58946289 71.07312012 -37.95751953 71.85131836 C-39.60672616 75.28243088 -41.33038858 78.61861582 -43.2578125 81.90234375 C-45.16340302 84.69820689 -45.16340302 84.69820689 -45 87 C-39.72 87 -34.44 87 -29 87 C-28.0821875 85.06898438 -27.164375 83.13796875 -26.21875 81.1484375 C-14.83441256 57.26845275 -14.83441256 57.26845275 -10.375 49.25 C-9.52035156 47.71085937 -9.52035156 47.71085937 -8.6484375 46.140625 C-6.75397102 43.68051214 -5.93506991 43.56661581 -3 43 C-5.76787569 50.43543301 -9.18340216 57.33238301 -12.9375 64.3125 C-33.78432317 103.84978271 -49.11067045 146.11639893 -60.1875 189.375 C-60.48264496 190.50326706 -60.48264496 190.50326706 -60.78375244 191.65432739 C-63.58931402 202.46030198 -65.46955302 212.88701143 -63 224 C-63.99 224.33 -64.98 224.66 -66 225 C-66.23847656 224.22398437 -66.47695312 223.44796875 -66.72265625 222.6484375 C-68.04601378 218.86857226 -69.58452183 215.24125493 -71.17260742 211.56713867 C-81.27387599 188.07159968 -89.22389645 163.99836974 -95.23242188 139.14355469 C-95.97779109 136.09095482 -96.75582197 133.04886067 -97.546875 130.0078125 C-103.80653404 105.83991096 -108.36461816 81.36470177 -112.8125 56.8125 C-113.11385361 55.15652802 -113.11385361 55.15652802 -113.42129517 53.46710205 C-114.00032438 50.27705611 -114.57344312 47.08600737 -115.14453125 43.89453125 C-115.40351196 42.46943489 -115.40351196 42.46943489 -115.66772461 41.01554871 C-116.72983475 35.02632795 -117.484377 29.06073558 -118 23 C-122.09345491 24.39211354 -124.81969571 26.30988306 -128.08203125 29.125 C-133.70544191 33.83235866 -139.56827663 37.96687551 -145.6875 42 C-146.72680664 42.68989014 -147.76611328 43.37978027 -148.83691406 44.09057617 C-156.04059012 48.82752204 -163.35612273 53.22898034 -170.953125 57.30078125 C-174.68871776 59.36659876 -174.68871776 59.36659876 -178 62 C-178.37221862 64.09680679 -178.37221862 64.09680679 -177.92504883 66.40698242 C-177.7965152 67.29815765 -177.66798157 68.18933289 -177.53555298 69.10751343 C-176.57882371 74.27474559 -175.42925466 79.37973575 -174.19921875 84.48828125 C-173.92157181 85.66730515 -173.64392487 86.84632904 -173.35786438 88.06108093 C-172.4737813 91.8130127 -171.58143531 95.56290444 -170.6875 99.3125 C-166.94482633 115.04698459 -163.30835021 130.7500494 -160.43228149 146.66830444 C-159.66849139 150.78813383 -158.83360961 154.89381811 -158 159 C-157.40558105 158.55897949 -156.81116211 158.11795898 -156.19873047 157.66357422 C-154.78092448 156.61165365 -153.36311849 155.55973307 -151.9453125 154.5078125 C-149.91747368 153.00126838 -149.91747368 153.00126838 -148 151 C-148.36551365 146.03662918 -149.64675333 141.6136546 -151.25 136.921875 C-151.69824684 135.58214167 -152.14615268 134.24229422 -152.59375 132.90234375 C-153.29352178 130.82990513 -153.99695472 128.75887296 -154.70703125 126.68994141 C-157.50831322 118.49540917 -159.797087 110.74831724 -160 102 C-158.515 101.505 -158.515 101.505 -157 101 C-156.76925781 101.95777344 -156.53851563 102.91554688 -156.30078125 103.90234375 C-146.71845103 143.24243784 -131.85129457 181.23802503 -115 218 C-114.55978516 218.96550781 -114.11957031 219.93101562 -113.66601562 220.92578125 C-103.7620393 242.52657049 -92.67602184 265.16421401 -78 284 C-74.05148882 283.40127863 -70.30421815 282.58963999 -66.48046875 281.44140625 C-64.94616211 280.98604492 -64.94616211 280.98604492 -63.38085938 280.52148438 C-62.32705078 280.20501953 -61.27324219 279.88855469 -60.1875 279.5625 C-53.16042288 277.45481144 -46.18497583 275.49405453 -39 274 C-38.88519287 273.39865234 -38.77038574 272.79730469 -38.65209961 272.17773438 C-27.84201598 216.28426825 -5.94605602 162.93153104 19 112 C19.49113281 110.99050293 19.98226562 109.98100586 20.48828125 108.94091797 C27.35908242 94.83900646 34.72958563 81.11309145 42.56152344 67.52294922 C43.82226939 65.31172235 45.05061704 63.08840947 46.2578125 60.84765625 C52.5974533 49.12833907 60.06913627 38.18498878 67.56054688 27.17626953 C69.01111475 25.07812786 69.01111475 25.07812786 70 23 C68.99138916 22.77449463 67.98277832 22.54898926 66.94360352 22.31665039 C62.14776788 21.24129577 57.35460464 20.15435309 52.5625 19.0625 C51.69063049 18.86391388 50.81876099 18.66532776 49.92047119 18.46072388 C35.90451446 15.25485937 22.0208405 11.69803307 8.19750977 7.74438477 C7.5434465 7.5595755 6.88938324 7.37476624 6.21549988 7.18435669 C4.46804748 6.68973768 2.72293332 6.18687817 0.97802734 5.68334961 C-4.6929957 4.38205485 -7.23424444 4.23810269 -11 9 Z " fill="#080907" transform="translate(299,101)"/>
</svg>


